# xmcd
#
# Track frame offsets:
#	150
#	19566
#	36846
#	60946
#	75872
#	96146
#	111296
#	130327
#	147928
#	167345
#	184625
#	208725
#	223651
#	243925
#	259075
#	278106
#	307107
#
# Disc length: 4108 seconds
#
# Revision: 1
# Processed by: cddbd v1.5.1PL0 Copyright (c) Steve Scherf et al.
# Submitted via: audiograbber 1.82.02
#
DISCID=e4100a11
DTITLE=Sound Choice 3440 - SC-3440 Country
DYEAR=2005
DGENRE=Country
TTITLE0=Trace Adkins - Honky Tonk Badonkadonk
TTITLE1=Sugarland - Something More
TTITLE2=Tim McGraw - Old Town New
TTITLE3=Miranda Lambert - Kerosene
TTITLE4=George Strait - You'll Be There
TTITLE5=MercyMe - Word Of God Speak
TTITLE6=Sara Evans - Real Fine Place To Start, A
TTITLE7=Lee Ann Womack - He Oughta Know That By Now
TTITLE8=Trace Adkins - Honky Tonk Badonkadonk (vocal)
TTITLE9=Sugarland - Something More (vocal)
TTITLE10=Tim McGraw - Old Town New (vocal)
TTITLE11=Miranda Lambert - Kerosene (vocal)
TTITLE12=George Strait - You'll Be There (vocal)
TTITLE13=MercyMe - Word Of God Speak (vocal)
TTITLE14=Sara Evans - Real Find Place To Start, A (vocal)
TTITLE15=Lee Ann Womack - He Oughta Know That By Now (vocal)
TTITLE16=data - Data Track
EXTD=
EXTT0=
EXTT1=
EXTT2=
EXTT3=
EXTT4=
EXTT5=
EXTT6=
EXTT7=
EXTT8=
EXTT9=
EXTT10=
EXTT11=
EXTT12=
EXTT13=
EXTT14=
EXTT15=
EXTT16=
PLAYORDER=
